<?xml version="1.0" encoding="utf-8"?>
<!-- Generator: Adobe Illustrator 24.0.2, SVG Export Plug-In . SVG Version: 6.00 Build 0)  -->
<svg version="1.1" id="katman_1" xmlns="http://www.w3.org/2000/svg" xmlns:xlink="http://www.w3.org/1999/xlink" x="0px" y="0px"
	 viewBox="0 0 1749.33 499.56" style="enable-background:new 0 0 1749.33 499.56;" xml:space="preserve">
<style type="text/css">
	.st0{fill:#E2C054;}
	.st1{fill:#CFAD45;}
	.st2{fill:#002D5D;}
	.st3{fill:#134395;}
	.st4{fill:none;stroke:#CFAD45;stroke-width:0.75;stroke-miterlimit:10;}
	.st5{fill:#002169;}
	.st6{font-family:'TrajanPro-Bold';}
	.st7{font-size:151.7426px;}
</style>
<g>
	<path class="st0" d="M238.39,464.89c-116.61,0-211.5-94.85-211.5-211.51c0-116.61,94.89-211.51,211.5-211.51
		c116.63,0,211.53,94.89,211.53,211.51C449.92,370.04,355.02,464.89,238.39,464.89 M238.39,47.49
		c-113.53,0-205.91,92.36-205.91,205.9c0,113.54,92.39,205.94,205.91,205.94c113.54,0,205.92-92.4,205.92-205.94
		C444.31,139.85,351.93,47.49,238.39,47.49"/>
	<path class="st1" d="M238.4,51.81c-111.15,0-201.57,90.43-201.57,201.57c0,111.14,90.43,201.58,201.57,201.58
		c111.13,0,201.58-90.43,201.58-201.58C439.98,142.24,349.54,51.81,238.4,51.81"/>
	<path class="st2" d="M376.6,253.38c0,76.33-61.87,138.2-138.2,138.2c-76.33,0-138.2-61.87-138.2-138.2
		c0-76.32,61.87-138.2,138.2-138.2C314.73,115.18,376.6,177.06,376.6,253.38"/>
	<path class="st3" d="M149.51,252.53c0.02,0.03,3.11,4.21,5.75,6.63c2.47,2.22,5.02,2.39,5.05,2.39c4.02,0,5.43-1.23,5.43-1.23
		c0.19-0.18,0.46-0.28,0.74-0.28c0.26,0.02,0.51,0.13,0.69,0.34l0.58,0.67l4.57-11.25c-0.34-0.17-0.86-0.41-1.51-0.68
		c-1.79-0.78-8.63-4.9-8.92-5.1c-0.87-0.44-22.66-11.72-21.07-23.34c1.26-9.19,6.05-10.01,8.35-9.82l0.44-5.94
		c1.65-9.27,2.61-11.43,3.76-13.94c0.26-0.6,0.53-1.2,0.85-1.93c1.37-3.5,1.16-10.85,0.95-12.43c-0.09,0.15-0.17,0.37-0.26,0.59
		c-0.37,0.89-0.58,2.23-0.79,3.66c-0.28,1.83-0.62,3.9-1.33,5.65l-0.14,0.26c-1.46,3.59-6.02,14.77-12.7,14.17
		c-0.87-0.08-1.68-0.53-2.28-1.32c-2.55-3.28-1.93-12.8-1.19-19.14c-1.54,3.43-3.23,8.19-3.6,13.03
		c-0.72,8.82,4.03,12.43,4.23,12.58c0.27,0.19,0.4,0.5,0.4,0.82c0,0.33-0.17,0.62-0.43,0.8c-0.1,0.02-8.44,5.46-10.54,12.15
		c-1.76,5.6,4.51,10.81,6.86,12.75c3.13,2.62,6.87,7.15,7.71,9.35c0.15,0.4,0.28,0.8,0.41,1.19c0.43,1.28,0.83,2.47,1.47,2.57
		C144.64,246.02,147.8,250.1,149.51,252.53"/>
	<path class="st4" d="M149.51,252.53c0.02,0.03,3.11,4.21,5.75,6.63c2.47,2.22,5.02,2.39,5.05,2.39c4.02,0,5.43-1.23,5.43-1.23
		c0.19-0.18,0.46-0.28,0.74-0.28c0.26,0.02,0.51,0.13,0.69,0.34l0.58,0.67l4.57-11.25c-0.34-0.17-0.86-0.41-1.51-0.68
		c-1.79-0.78-8.63-4.9-8.92-5.1c-0.87-0.44-22.66-11.72-21.07-23.34c1.26-9.19,6.05-10.01,8.35-9.82l0.44-5.94
		c1.65-9.27,2.61-11.43,3.76-13.94c0.26-0.6,0.53-1.2,0.85-1.93c1.37-3.5,1.16-10.85,0.95-12.43c-0.09,0.15-0.17,0.37-0.26,0.59
		c-0.37,0.89-0.58,2.23-0.79,3.66c-0.28,1.83-0.62,3.9-1.33,5.65l-0.14,0.26c-1.46,3.59-6.02,14.77-12.7,14.17
		c-0.87-0.08-1.68-0.53-2.28-1.32c-2.55-3.28-1.93-12.8-1.19-19.14c-1.54,3.43-3.23,8.19-3.6,13.03
		c-0.72,8.82,4.03,12.43,4.23,12.58c0.27,0.19,0.4,0.5,0.4,0.82c0,0.33-0.17,0.62-0.43,0.8c-0.1,0.02-8.44,5.46-10.54,12.15
		c-1.76,5.6,4.51,10.81,6.86,12.75c3.13,2.62,6.87,7.15,7.71,9.35c0.15,0.4,0.28,0.8,0.41,1.19c0.43,1.28,0.83,2.47,1.47,2.57
		C144.64,246.02,147.8,250.1,149.51,252.53"/>
	<path class="st3" d="M187.4,276.28c4.83,1.33,10.16,1.38,12.35,1.38c-0.42-3.18-1.98-11.07-2.93-15.6
		c-0.77-0.43-2.57-1.55-6.81-4.35c-5.02-3.32-9.65-5.12-11.47-5.77l-6.33,15.2c0.45,0.57,1.26,1.57,1.81,2.12
		C174.72,269.91,181.08,274.54,187.4,276.28"/>
	<path class="st4" d="M187.4,276.28c4.83,1.33,10.16,1.38,12.35,1.38c-0.42-3.18-1.98-11.07-2.93-15.6
		c-0.77-0.43-2.57-1.55-6.81-4.35c-5.02-3.32-9.65-5.12-11.47-5.77l-6.33,15.2c0.45,0.57,1.26,1.57,1.81,2.12
		C174.72,269.91,181.08,274.54,187.4,276.28"/>
	<path class="st3" d="M348.93,187.61l-12.3-16.86c-0.48,0.35-1.18,0.77-2.21,1.22c-1.61,0.7-3.7,0.84-5.17,0.84h-0.5
		c-0.53,0.79-1.78,2.25-4.08,3.41c-1.99,0.99-4.97,1.48-8.86,1.48c-2.5,0-4.7-0.21-5.71-0.31c-5.5,7.19-10.68,10.45-13.17,11.74
		l21.84,17.67L348.93,187.61z"/>
	<path class="st4" d="M348.93,187.61l-12.3-16.86c-0.48,0.35-1.18,0.77-2.21,1.22c-1.61,0.7-3.7,0.84-5.17,0.84h-0.5
		c-0.53,0.79-1.78,2.25-4.08,3.41c-1.99,0.99-4.97,1.48-8.86,1.48c-2.5,0-4.7-0.21-5.71-0.31c-5.5,7.19-10.68,10.45-13.17,11.74
		l21.84,17.67L348.93,187.61z"/>
	<path class="st3" d="M265.96,256.66c-0.15-0.43-2.7-9.96,3.6-12.28c1.38-0.51,2.47-0.69,3.55-0.89c3.29-0.61,6.13-1.12,15.18-10.91
		c6.73-4.73,16.86-12.53,17.89-15.26c0.04-0.1,0.09-0.21,0.16-0.28c1.32-1.58,4.1-4.68,6.36-6.12l-19.85-14.87
		c-1.25,2.34-20.43,17.39-46.73,24.57l-0.27,0.08c-1.51,0.52-5.02,1.74-11.34,10.12c-7.04,9.36-16.34,24.05-16.41,24.2
		c-0.26,0.37-5.65,8-13.6,8.8l3.04,14.46c0,0,0.69,1.6,4.98,1.22c5.37-0.48,8.83-1.47,8.86-1.47c0.52-0.15,1.02,0.12,1.21,0.59
		c0.18,0.49,4.13,11.71-2.67,20.08c-0.32,0.32-5.72,5.37-15.74,6.4c-7.99,0.8-32.54,4.84-42.7,9.09c-8.14,3.4-8.28,3.51-12.06,5.79
		c-1.22,0.76-2.8,1.72-5.13,3.09l-17.64,12.21c25.14,34.13,65.57,56.29,111.2,56.29c43.63,0,82.52-20.28,107.81-51.89l-14.96-18.82
		c-3.27-0.39-24.03-4.44-44.85-22.04C285.85,298.82,277.91,291.97,265.96,256.66"/>
	<path class="st4" d="M265.96,256.66c-0.15-0.43-2.7-9.96,3.6-12.28c1.38-0.51,2.47-0.69,3.55-0.89c3.29-0.61,6.13-1.12,15.18-10.91
		c6.73-4.73,16.86-12.53,17.89-15.26c0.04-0.1,0.09-0.21,0.16-0.28c1.32-1.58,4.1-4.68,6.36-6.12l-19.85-14.87
		c-1.25,2.34-20.43,17.39-46.73,24.57l-0.27,0.08c-1.51,0.52-5.02,1.74-11.34,10.12c-7.04,9.36-16.34,24.05-16.41,24.2
		c-0.26,0.37-5.65,8-13.6,8.8l3.04,14.46c0,0,0.69,1.6,4.98,1.22c5.37-0.48,8.83-1.47,8.86-1.47c0.52-0.15,1.02,0.12,1.21,0.59
		c0.18,0.49,4.13,11.71-2.67,20.08c-0.32,0.32-5.72,5.37-15.74,6.4c-7.99,0.8-32.54,4.84-42.7,9.09c-8.14,3.4-8.28,3.51-12.06,5.79
		c-1.22,0.76-2.8,1.72-5.13,3.09l-17.64,12.21c25.14,34.13,65.57,56.29,111.2,56.29c43.63,0,82.52-20.28,107.81-51.89l-14.96-18.82
		c-3.27-0.39-24.03-4.44-44.85-22.04C285.85,298.82,277.91,291.97,265.96,256.66z"/>
	<polygon class="st5" points="80.12,227.38 57.66,221.45 58.88,216.78 67.46,219.05 69.76,210.3 61.19,208.05 62.42,203.4 
		84.88,209.32 83.64,213.96 73.62,211.36 71.32,220.05 81.35,222.71 	"/>
	<path class="st5" d="M69.78,182.43l2.33-4.95l24.53,2.4l-2.22,4.78l-4.96-0.64l-3.65,7.76l3.66,3.43l-2.15,4.61L69.78,182.43z
		 M82.73,188.88l2.53-5.41l-9.52-1.2L82.73,188.88z"/>
	<polygon class="st5" points="81.8,158.98 84.57,155.04 100.21,165.92 106.88,156.41 110.28,158.8 100.87,172.29 	"/>
	<path class="st5" d="M94.3,130.83l2.78-3.01l2.74,2.52l-2.77,3.02L94.3,130.83z M119.08,147.59l-3.27,3.55l-17.09-15.71l3.25-3.56
		L119.08,147.59z"/>
	<path class="st5" d="M115.67,120.28c0.25-2.64,1.5-4.91,3.72-6.72c3.01-2.46,5.99-3.25,9.02-2.4c1.67,0.51,3,1.29,3.94,2.36
		l-3.73,3.08c-0.95-0.69-1.8-1.09-2.52-1.2c-1.32-0.21-2.62,0.19-3.95,1.25c-1.34,1.09-1.93,2.5-1.81,4.25
		c0.12,1.71,1.01,3.6,2.64,5.63c1.66,2.02,3.31,3.2,4.94,3.54c1.64,0.34,3.08,0.01,4.34-1.03c1.31-1.05,1.93-2.28,1.91-3.72
		c-0.01-0.76-0.28-1.72-0.77-2.84l3.74-3.04c1.29,2.23,1.75,4.48,1.41,6.8c-0.31,2.32-1.41,4.24-3.28,5.76l0.15,1.69
		c0.24-0.28,0.39-0.47,0.49-0.58c0.09-0.11,0.2-0.21,0.34-0.32c0.68-0.55,1.32-0.81,1.98-0.83c0.62,0.02,1.21,0.32,1.72,0.94
		c0.59,0.75,0.77,1.57,0.53,2.51c-0.26,0.92-0.87,1.77-1.85,2.58c-0.39,0.32-0.99,0.66-1.7,0.95c-0.34,0.15-0.84,0.33-1.47,0.53
		l-0.38-1.4c0.58-0.26,0.96-0.43,1.16-0.53c0.49-0.22,0.82-0.43,1.07-0.62c0.5-0.41,0.77-0.81,0.8-1.18
		c0.04-0.38-0.02-0.68-0.22-0.92c-0.26-0.34-0.59-0.47-0.95-0.42c-0.34,0.06-0.65,0.19-0.93,0.41c-0.15,0.12-0.29,0.29-0.41,0.43
		c-0.12,0.18-0.27,0.37-0.42,0.6l-0.94-0.07l-0.3-2.71c-1.93,1.55-4.28,2.1-7.07,1.63c-2.81-0.5-5.4-2.2-7.78-5.09
		C116.53,126.45,115.39,123.33,115.67,120.28"/>
	<path class="st5" d="M154.68,89.44l4.56-1.92l5.5,13.16c0.62,1.5,1.26,2.48,1.86,3.02c1.06,0.98,2.48,1.08,4.31,0.34
		c1.81-0.78,2.72-1.86,2.76-3.29c0.07-0.82-0.23-1.97-0.82-3.44l-5.5-13.17l4.54-1.89l5.51,13.17c0.94,2.28,1.36,4.18,1.17,5.78
		c-0.37,2.86-2.39,5.07-6.1,6.62c-3.69,1.56-6.7,1.43-9-0.31c-1.23-1.01-2.33-2.62-3.28-4.9L154.68,89.44z M156.23,82.4l3.81-1.58
		l1.43,3.44l-3.79,1.58L156.23,82.4z M162.04,79.96l3.79-1.59l1.43,3.47l-3.79,1.57L162.04,79.96z"/>
	<polygon class="st5" points="187.27,77.36 192.23,76.2 204.9,89.88 201.21,74.09 205.6,73.06 210.93,95.69 206.19,96.79 
		193.22,82.89 196.98,98.96 192.58,100.01 	"/>
	<path class="st5" d="M220.6,65.28l4.1-0.28l0.23,3.74L220.82,69L220.6,65.28z M226.86,94.52l-4.82,0.3l-1.44-23.2l4.83-0.3
		L226.86,94.52z"/>
	<polygon class="st5" points="253.48,71.06 258.51,71.46 248.79,94.03 244.22,93.64 238.19,69.88 243.39,70.29 247.04,88.27 	"/>
	<polygon class="st5" points="288.4,82.12 276.51,79.04 275.26,83.82 286.2,86.64 285.17,90.55 274.26,87.75 272.76,93.52 
		285.22,96.74 284.17,100.77 267.12,96.38 272.94,73.88 289.44,78.15 	"/>
	<path class="st5" d="M317.59,89.78c0.62,0.71,1.07,1.5,1.29,2.41c0.21,0.73,0.28,1.48,0.24,2.25c-0.05,0.78-0.25,1.58-0.64,2.41
		c-0.48,1-1.18,1.86-2.12,2.58c-0.98,0.75-2.11,1.04-3.45,0.9c0.78,0.86,1.24,1.72,1.29,2.64c0.06,0.89-0.25,2.09-0.93,3.57
		l-0.66,1.4c-0.44,0.97-0.7,1.65-0.8,2.05c-0.12,0.57-0.07,1.11,0.26,1.56l-0.26,0.53l-4.86-2.26c0.1-0.54,0.16-0.96,0.24-1.26
		c0.17-0.65,0.38-1.28,0.66-1.9l0.91-1.99c0.59-1.36,0.77-2.34,0.52-3c-0.22-0.66-0.96-1.25-2.19-1.85l-4.27-1.98l-3.85,8.24
		l-4.33-1.99l9.83-21.06l10.07,4.7C315.98,88.39,316.98,89.11,317.59,89.78 M307.04,88.66l-2.63,5.66l4.73,2.21
		c0.94,0.44,1.7,0.66,2.29,0.66c1.03-0.03,1.81-0.62,2.34-1.79c0.61-1.27,0.6-2.35-0.01-3.13c-0.34-0.47-0.94-0.92-1.83-1.34
		L307.04,88.66z"/>
	<path class="st5" d="M327.59,111.86c-0.48,0.96-0.69,1.77-0.65,2.45c0.09,1.25,0.95,2.44,2.54,3.57c0.95,0.66,1.79,1.15,2.54,1.35
		c1.4,0.42,2.49,0.08,3.23-0.99c0.46-0.63,0.52-1.31,0.22-2.05c-0.33-0.71-0.98-1.64-2-2.74l-1.73-1.93
		c-1.69-1.86-2.73-3.36-3.11-4.41c-0.66-1.78-0.33-3.58,1-5.45c1.23-1.7,2.86-2.68,4.9-2.87c2.04-0.24,4.28,0.5,6.69,2.22
		c2,1.44,3.36,3.23,4.01,5.28c0.68,2.06,0.33,4.14-1.03,6.19l-3.82-2.71c0.75-1.17,0.84-2.36,0.21-3.51c-0.38-0.75-1.05-1.49-2-2.15
		c-1.05-0.74-2.03-1.15-2.94-1.17c-0.91-0.02-1.64,0.31-2.16,1.05c-0.48,0.69-0.55,1.39-0.15,2.18c0.23,0.5,0.88,1.36,1.95,2.56
		l2.77,3.16c1.21,1.39,1.96,2.62,2.29,3.7c0.48,1.7,0.13,3.4-1.07,5.07c-1.23,1.73-2.95,2.69-5.07,2.91
		c-2.16,0.17-4.46-0.63-6.89-2.36c-2.48-1.76-4.06-3.74-4.67-5.87c-0.62-2.14-0.23-4.2,1.17-6.15L327.59,111.86z"/>
	<path class="st5" d="M348.97,138.05l-3.51-3.33l16.01-16.85l3.5,3.34L348.97,138.05z M366.1,113.54l3,2.83l-2.59,2.7l-2.98-2.82
		L366.1,113.54z"/>
	<polygon class="st5" points="385.66,144.95 382.46,147.54 378.1,142.12 363.19,154.1 360.15,150.3 375.04,138.3 370.65,132.87 
		373.86,130.29 	"/>
	<polygon class="st5" points="397.9,173.67 391.92,162.92 387.62,165.31 393.1,175.19 389.57,177.14 384.1,167.27 378.86,170.17 
		385.12,181.44 381.46,183.45 372.91,168.06 393.22,156.77 401.49,171.67 	"/>
	<path class="st5" d="M395.48,196.47c-0.97,0.44-1.68,0.92-2.07,1.48c-0.72,1.02-0.84,2.47-0.33,4.36c0.3,1.13,0.65,2.03,1.09,2.67
		c0.81,1.23,1.87,1.65,3.15,1.31c0.74-0.17,1.21-0.67,1.45-1.41c0.24-0.78,0.32-1.92,0.23-3.43l-0.11-2.57
		c-0.08-2.54,0.06-4.31,0.43-5.38c0.65-1.78,2.06-2.97,4.27-3.54c2.01-0.53,3.89-0.24,5.6,0.88c1.72,1.13,2.96,3.14,3.71,6
		c0.64,2.41,0.54,4.64-0.26,6.64c-0.8,2.03-2.39,3.38-4.76,4.1l-1.2-4.51c1.31-0.44,2.12-1.29,2.4-2.56
		c0.18-0.87,0.12-1.85-0.18-2.96c-0.32-1.24-0.83-2.15-1.51-2.78c-0.68-0.6-1.45-0.79-2.32-0.57c-0.82,0.2-1.32,0.75-1.51,1.55
		c-0.17,0.56-0.21,1.62-0.16,3.24l0.11,4.2c0.04,1.84-0.14,3.28-0.58,4.33c-0.73,1.6-2.1,2.69-4.08,3.2
		c-2.06,0.55-3.96,0.19-5.73-1.02c-1.79-1.24-3.05-3.28-3.83-6.2c-0.75-2.95-0.7-5.45,0.19-7.5c0.89-2.04,2.49-3.39,4.84-3.99
		L395.48,196.47z"/>
	<path class="st5" d="M395.7,227.67l-0.91-4.75l22.79-4.4l0.92,4.74L395.7,227.67z M423.91,217.71l0.78,4.02l-3.67,0.72l-0.78-4.05
		L423.91,217.71z"/>
	<polygon class="st5" points="68.04,319.78 89.4,310.64 91.29,315.09 83.16,318.57 86.72,326.88 94.83,323.37 96.74,327.83 
		75.38,336.96 73.48,332.52 83.03,328.43 79.46,320.14 69.92,324.23 	"/>
	<path class="st5" d="M104.76,340.34l3.04,4.55l-14.78,19.72l-2.93-4.36l3.13-3.95l-4.75-7.11l-4.85,1.32l-2.8-4.21L104.76,340.34z
		 M92.56,348.09l3.29,4.95l5.99-7.5L92.56,348.09z"/>
	<polygon class="st5" points="119.06,359.02 122.41,362.53 108.59,375.67 116.59,384.06 113.58,386.95 102.24,375.01 	"/>
	<path class="st5" d="M126.07,398.2l-3.73-3.04l14.61-18.05l3.74,3.04L126.07,398.2z M141.24,372.41l3.21,2.6l-2.35,2.89l-3.2-2.59
		L141.24,372.41z"/>
	<path class="st5" d="M149.25,389.78c2.58-0.67,5.12-0.25,7.59,1.24c3.31,1.97,5.09,4.53,5.29,7.65c0.1,1.76-0.2,3.27-0.86,4.52
		l-4.17-2.48c0.31-1.09,0.42-2.05,0.29-2.79c-0.21-1.29-1.07-2.38-2.53-3.25c-1.48-0.89-3.01-0.99-4.61-0.28
		c-1.57,0.71-3.05,2.18-4.39,4.42c-1.33,2.22-1.9,4.17-1.64,5.84c0.25,1.66,1.04,2.89,2.44,3.74c1.42,0.86,2.79,1.05,4.11,0.52
		c0.74-0.25,1.52-0.83,2.45-1.7l4.12,2.49c-1.67,1.96-3.63,3.19-5.92,3.67c-2.3,0.47-4.46,0.09-6.55-1.13l-1.53,0.71
		c0.35,0.12,0.57,0.21,0.72,0.25c0.13,0.05,0.27,0.11,0.42,0.2c0.75,0.44,1.21,0.96,1.44,1.6c0.21,0.6,0.11,1.23-0.28,1.92
		c-0.49,0.82-1.24,1.26-2.2,1.33c-0.96,0.09-1.99-0.19-3.04-0.81c-0.46-0.3-0.96-0.71-1.48-1.32c-0.26-0.24-0.58-0.66-1.01-1.17
		l1.21-0.85c0.43,0.46,0.71,0.77,0.86,0.94c0.39,0.36,0.72,0.62,0.99,0.79c0.53,0.31,1,0.44,1.37,0.35
		c0.36-0.08,0.63-0.27,0.78-0.52c0.22-0.38,0.25-0.73,0.1-1.02c-0.18-0.31-0.41-0.56-0.7-0.75c-0.18-0.12-0.38-0.18-0.58-0.24
		c-0.2-0.08-0.44-0.13-0.7-0.21l-0.25-0.89l2.46-1.23c-2.12-1.27-3.41-3.3-3.93-6.1c-0.49-2.81,0.21-5.83,2.15-9.06
		C143.74,392.7,146.26,390.58,149.25,389.78"/>
	<path class="st5" d="M187.78,405.31l4.78,1.21L189,420.36c-0.41,1.55-0.5,2.72-0.33,3.52c0.25,1.41,1.34,2.38,3.24,2.86
		c1.89,0.47,3.27,0.16,4.19-0.95c0.53-0.63,1.02-1.71,1.4-3.25l3.55-13.81l4.79,1.2l-3.56,13.85c-0.6,2.39-1.47,4.15-2.55,5.31
		c-2,2.1-4.96,2.62-8.84,1.62c-3.88-0.99-6.23-2.89-7-5.69c-0.38-1.52-0.26-3.47,0.33-5.86L187.78,405.31z"/>
	<polygon class="st5" points="215.98,411.88 221.05,412.26 229.06,429.11 230.26,412.96 234.75,413.27 233.05,436.45 228.2,436.08 
		219.98,418.96 218.76,435.4 214.25,435.06 	"/>
	<polygon class="st5" points="251.68,436.31 246.86,436.6 245.39,413.44 250.2,413.13 	"/>
	<polygon class="st5" points="275.22,408.97 280.17,407.99 276.99,432.33 272.47,433.23 260.19,412.02 265.27,410.98 273.71,427.28 
			"/>
	<polygon class="st5" points="305.46,402.95 294.11,407.64 295.99,412.2 306.42,407.9 307.95,411.67 297.51,415.92 299.79,421.46 
		311.69,416.57 313.28,420.43 296.98,427.11 288.16,405.63 303.91,399.14 	"/>
	<path class="st5" d="M325.14,388.3c0.93-0.17,1.83-0.08,2.69,0.24c0.74,0.24,1.42,0.6,2.04,1.04c0.59,0.48,1.16,1.08,1.63,1.88
		c0.58,0.94,0.89,2.01,0.98,3.2c0.08,1.21-0.32,2.34-1.16,3.37c1.11-0.18,2.09-0.06,2.88,0.41c0.79,0.43,1.61,1.34,2.46,2.73
		l0.79,1.35c0.56,0.9,0.97,1.49,1.25,1.77c0.43,0.45,0.89,0.68,1.45,0.68l0.32,0.5l-4.59,2.79c-0.4-0.35-0.71-0.68-0.93-0.9
		c-0.42-0.5-0.84-1.03-1.21-1.63l-1.14-1.8c-0.79-1.27-1.52-1.97-2.19-2.15c-0.67-0.18-1.61,0.11-2.75,0.8l-4.05,2.48l4.74,7.77
		l-4.06,2.46l-12.08-19.82l9.5-5.81C323.06,388.87,324.22,388.41,325.14,388.3 M318.36,396.42l3.23,5.33l4.48-2.71
		c0.86-0.53,1.49-1.06,1.78-1.51c0.55-0.87,0.51-1.85-0.17-2.97c-0.73-1.2-1.6-1.78-2.63-1.72c-0.56,0.02-1.28,0.29-2.13,0.81
		L318.36,396.42z"/>
	<path class="st5" d="M350.7,389.71c0.8,0.69,1.55,1.08,2.24,1.19c1.24,0.19,2.58-0.37,4.04-1.66c0.89-0.79,1.5-1.49,1.89-2.17
		c0.73-1.29,0.64-2.43-0.25-3.4c-0.49-0.57-1.14-0.78-1.92-0.65c-0.78,0.12-1.83,0.57-3.14,1.31l-2.26,1.24
		c-2.2,1.27-3.86,1.93-5,2.06c-1.88,0.23-3.56-0.5-5.08-2.2c-1.38-1.55-1.95-3.38-1.72-5.41c0.24-2.06,1.47-4.05,3.67-6.01
		c1.85-1.66,3.88-2.55,6.04-2.76c2.17-0.2,4.11,0.6,5.82,2.39l-3.49,3.11c-0.99-1.03-2.12-1.33-3.39-0.99
		c-0.81,0.23-1.68,0.72-2.54,1.49c-0.96,0.84-1.56,1.7-1.79,2.6c-0.25,0.9-0.06,1.66,0.54,2.33c0.55,0.62,1.25,0.82,2.07,0.64
		c0.54-0.11,1.54-0.55,2.94-1.31l3.71-2c1.62-0.87,3-1.34,4.12-1.42c1.79-0.09,3.33,0.67,4.72,2.2c1.4,1.6,1.95,3.45,1.66,5.58
		c-0.29,2.15-1.57,4.21-3.8,6.2c-2.3,2.04-4.56,3.11-6.78,3.25c-2.21,0.12-4.15-0.73-5.75-2.52L350.7,389.71z"/>
	<polygon class="st5" points="377.18,372.43 374.03,376.11 356.42,360.95 359.56,357.29 	"/>
	<polygon class="st5" points="376.42,334.63 379.87,336.91 376.05,342.72 392.01,353.21 389.32,357.29 373.35,346.81 369.52,352.62 
		366.07,350.36 	"/>
	<polygon class="st5" points="385.65,314.43 387.84,309.38 398.05,322.34 406.02,325.81 404.08,330.26 396.08,326.77 379.57,328.33 
		381.87,323.09 393.06,322.71 	"/>
	<polygon class="st5" points="67.24,260.66 69.77,266.61 75.44,266.61 71.34,270.62 72.3,276.24 67.24,273.59 62.16,276.24 
		63.14,270.62 59.04,266.61 64.72,266.61 	"/>
	<polygon class="st5" points="409.93,260.66 412.47,266.61 418.14,266.61 414.04,270.62 415,276.24 409.93,273.59 404.87,276.24 
		405.82,270.62 401.74,266.61 407.39,266.61 	"/>
	<path class="st1" d="M217.2,357.02c-0.15,0.49-0.37,0.88-0.64,1.16c-0.41,0.41-0.9,0.74-1.53,0.87c-0.42,0.07-1.13,0.1-2.13,0.18
		v2.15h3.8v11.09h3.23v-16.06h-2.63C217.31,356.52,217.28,356.73,217.2,357.02"/>
	<path class="st1" d="M230.04,356.26c-1.58,0-2.88,0.55-3.88,1.61c-1,1.06-1.48,2.47-1.48,4.18c0,1.69,0.48,2.94,1.48,3.83
		c1,0.89,2.12,1.34,3.39,1.34c0.91,0,1.61-0.17,2.21-0.55c0.32-0.18,0.63-0.45,0.91-0.82c-0.04,1.22-0.19,2.14-0.44,2.8
		c-0.4,1.16-1.14,1.73-2.19,1.73c-0.52,0-0.98-0.15-1.3-0.45c-0.33-0.28-0.51-0.69-0.59-1.16H225c0.12,1.38,0.68,2.41,1.65,3.11
		c0.97,0.73,2.05,1.11,3.27,1.11c2.53,0,4.24-1.25,5.2-3.75c0.52-1.3,0.77-2.91,0.77-4.88c0-1.97-0.28-3.63-0.79-4.84
		C234.21,357.35,232.5,356.26,230.04,356.26 M231.5,364.25c-0.39,0.24-0.8,0.39-1.23,0.39c-0.83,0-1.41-0.25-1.79-0.72
		c-0.4-0.45-0.59-1.21-0.59-2.14c0-1.14,0.28-1.95,0.9-2.44c0.4-0.28,0.85-0.44,1.4-0.44c0.73,0,1.31,0.25,1.74,0.81
		c0.45,0.53,0.64,1.24,0.64,2.14C232.55,363.01,232.23,363.8,231.5,364.25"/>
	<path class="st1" d="M242.7,356.26c-1.58,0-2.87,0.55-3.87,1.61c-1,1.06-1.49,2.47-1.49,4.18c0,1.69,0.49,2.94,1.49,3.83
		c0.98,0.89,2.12,1.34,3.42,1.34c0.86,0,1.6-0.17,2.16-0.55c0.35-0.18,0.66-0.45,0.94-0.82c-0.05,1.22-0.2,2.14-0.43,2.8
		c-0.43,1.16-1.15,1.73-2.21,1.73c-0.53,0-0.96-0.15-1.29-0.45c-0.3-0.28-0.51-0.69-0.59-1.16h-3.16c0.12,1.38,0.7,2.41,1.64,3.11
		c0.98,0.73,2.05,1.11,3.25,1.11c2.54,0,4.27-1.25,5.24-3.75c0.5-1.3,0.75-2.91,0.75-4.88c0-1.97-0.26-3.63-0.79-4.84
		C246.82,357.35,245.17,356.26,242.7,356.26 M244.16,364.25c-0.39,0.24-0.81,0.39-1.23,0.39c-0.81,0-1.4-0.25-1.81-0.72
		c-0.4-0.45-0.59-1.21-0.59-2.14c0-1.14,0.32-1.95,0.94-2.44c0.35-0.28,0.84-0.44,1.36-0.44c0.76,0,1.33,0.25,1.76,0.81
		c0.42,0.53,0.64,1.24,0.64,2.14C245.23,363.01,244.88,363.8,244.16,364.25"/>
	<path class="st1" d="M258.71,363.81c0.79-0.42,1.28-0.96,1.53-1.56c0.23-0.6,0.35-1.17,0.35-1.71c0-1.16-0.44-2.14-1.33-2.96
		c-0.87-0.84-2.13-1.25-3.74-1.25c-1.61,0-2.85,0.41-3.73,1.25c-0.88,0.82-1.32,1.8-1.32,2.96c0,0.54,0.11,1.11,0.35,1.71
		c0.22,0.61,0.75,1.15,1.52,1.68c-0.8,0.36-1.4,0.93-1.84,1.66c-0.38,0.75-0.59,1.56-0.59,2.47c0,1.35,0.46,2.51,1.37,3.47
		c0.94,0.94,2.3,1.41,4.09,1.41c1.81,0,3.21-0.46,4.21-1.41c1.02-0.96,1.5-2.12,1.5-3.47c0-0.91-0.2-1.72-0.59-2.47
		C260.09,364.86,259.5,364.25,258.71,363.81 M254.03,359.42c0.37-0.35,0.84-0.55,1.49-0.55c0.66,0,1.15,0.2,1.49,0.55
		c0.39,0.35,0.56,0.83,0.56,1.47c0,0.58-0.17,1.07-0.56,1.46c-0.34,0.34-0.83,0.56-1.49,0.56c-0.64,0-1.12-0.22-1.49-0.56
		c-0.35-0.39-0.55-0.88-0.55-1.46C253.48,360.25,253.68,359.77,254.03,359.42 M257.23,369.65c-0.42,0.44-1,0.68-1.72,0.68
		c-0.72,0-1.3-0.24-1.72-0.68c-0.41-0.41-0.6-1.04-0.6-1.82c0-0.84,0.19-1.45,0.62-1.88c0.43-0.42,0.98-0.63,1.7-0.63
		c0.71,0,1.25,0.21,1.68,0.63c0.42,0.43,0.64,1.04,0.64,1.88C257.84,368.61,257.61,369.24,257.23,369.65"/>
	<rect x="181.95" y="325.4" class="st1" width="2.9" height="2.64"/>
	<rect x="181.69" y="329.88" class="st1" width="3.4" height="16.37"/>
	<path class="st1" d="M199.46,338.12c-0.63-0.49-1.54-0.89-2.79-1.17l-2.83-0.68c-1.07-0.28-1.79-0.51-2.13-0.67
		c-0.5-0.31-0.78-0.77-0.78-1.32c0-0.66,0.28-1.15,0.78-1.51c0.53-0.35,1.23-0.53,2.12-0.53c0.81,0,1.46,0.12,2,0.41
		c0.8,0.41,1.22,1.13,1.29,2.09h3.29c-0.08-1.73-0.7-3.04-1.92-3.98c-1.22-0.89-2.67-1.36-4.41-1.36c-2.07,0-3.63,0.49-4.7,1.46
		c-1.06,0.98-1.58,2.2-1.58,3.66c0,1.62,0.55,2.79,1.65,3.56c0.66,0.42,1.83,0.87,3.5,1.24l1.74,0.41c1.03,0.2,1.77,0.45,2.24,0.75
		c0.47,0.27,0.73,0.71,0.73,1.25c0,0.93-0.5,1.58-1.46,1.91c-0.49,0.19-1.15,0.27-1.94,0.27c-1.37,0-2.3-0.33-2.86-1.02
		c-0.32-0.38-0.52-0.93-0.6-1.68h-3.27c0,1.72,0.59,3.05,1.83,4.02c1.21,0.99,2.88,1.47,5.03,1.47c2.09,0,3.69-0.48,4.84-1.47
		c1.17-1.02,1.72-2.24,1.72-3.76C200.93,340,200.46,338.89,199.46,338.12"/>
	<polygon class="st1" points="215.37,329.88 202.1,329.88 202.1,332.78 207.01,332.78 207.01,346.25 210.47,346.25 210.47,332.78 
		215.37,332.78 	"/>
	<path class="st1" d="M218.1,346.25l1.15-3.38h6.05l1.03,3.38h3.71l-5.79-16.37h-3.89l-5.84,16.37H218.1z M222.25,333.62l2.06,6.42
		h-4.16L222.25,333.62z"/>
	<polygon class="st1" points="245.37,346.25 245.37,329.88 242.16,329.88 242.16,341.3 235.65,329.88 232.07,329.88 232.07,346.25 
		235.27,346.25 235.27,334.61 241.95,346.25 	"/>
	<path class="st1" d="M259.59,337.48c0.55-0.3,0.96-0.6,1.27-0.96c0.49-0.58,0.76-1.39,0.76-2.39c0-0.98-0.27-1.81-0.76-2.54
		c-0.83-1.1-2.27-1.7-4.28-1.71h-7.94v16.37h7.41c0.84,0,1.61-0.08,2.33-0.23c0.7-0.13,1.33-0.4,1.83-0.81
		c0.49-0.34,0.87-0.77,1.19-1.27c0.5-0.81,0.72-1.66,0.72-2.64c0-0.93-0.21-1.72-0.66-2.36
		C261.08,338.25,260.44,337.77,259.59,337.48 M251.88,332.72h3.61c0.78,0,1.43,0.06,1.96,0.25c0.57,0.23,0.88,0.76,0.88,1.54
		c0,0.68-0.23,1.15-0.67,1.43c-0.46,0.28-1.04,0.41-1.73,0.41h-4.05V332.72z M257.58,343.11c-0.39,0.19-0.96,0.31-1.66,0.31h-4.05
		v-4.36h4.09c0.7,0,1.27,0.09,1.65,0.28c0.7,0.32,1.06,0.9,1.06,1.75C258.67,342.08,258.31,342.75,257.58,343.11"/>
	<path class="st1" d="M274.68,339.93c0,1.14-0.15,1.97-0.39,2.46c-0.41,0.93-1.34,1.41-2.71,1.41c-1.4,0-2.29-0.48-2.7-1.41
		c-0.29-0.49-0.42-1.32-0.42-2.46v-10.05h-3.46v10.05c0,1.77,0.25,3.11,0.8,4.07c0.98,1.79,2.95,2.68,5.77,2.68
		c2.84,0,4.77-0.89,5.77-2.68c0.54-0.97,0.79-2.31,0.79-4.07v-10.05h-3.47V339.93z"/>
	<polygon class="st1" points="284.83,329.88 281.43,329.88 281.43,346.25 292.98,346.25 292.98,343.3 284.83,343.3 	"/>
	<path class="st5" d="M344.88,341.96l0.02,0.03l1.28-1.62l-0.03-0.02C345.74,340.88,345.31,341.42,344.88,341.96"/>
</g>
<text transform="matrix(1 0 0 1 512.2809 225.0567)"><tspan x="0" y="0" class="st1 st6 st7">HALİÇ</tspan><tspan x="0" y="182.09" class="st1 st6 st7">ÜNİVERSİTESİ</tspan></text>
</svg>
